# Made in Blockbench 4.8.3
mtllib alternator.mtl

o cube
v 1.5 2 1.5
v 1.5 2 -0.5
v 1.5 0 1.5
v 1.5 0 -0.5
v -1.5 2 -0.5
v -1.5 2 1.5
v -1.5 0 -0.5
v -1.5 0 1.5
vt 0.19140625 1
vt 0.37890625 1
vt 0.37890625 0.875
vt 0.19140625 0.875
vt 0.34375 0.6015625
vt 0.46875 0.6015625
vt 0.46875 0.4765625
vt 0.34375 0.4765625
vt 0.265625 0.73046875
vt 0.453125 0.73046875
vt 0.453125 0.60546875
vt 0.265625 0.60546875
vt 0 0.58984375
vt 0.125 0.58984375
vt 0.125 0.46484375
vt 0 0.46484375
vt 0.1875 0.59375
vt 0 0.59375
vt 0 0.71875
vt 0.1875 0.71875
vt 0.49609375 0.87109375
vt 0.30859375 0.87109375
vt 0.30859375 0.74609375
vt 0.49609375 0.74609375
vn 0 0 -1
vn 1 0 0
vn 0 0 1
vn -1 0 0
vn 0 1 0
vn 0 -1 0
usemtl m_3f3e1241-e8e0-e9ba-d126-0dffbea659b6
f 4/4/1 7/3/1 5/2/1 2/1/1
f 3/8/2 4/7/2 2/6/2 1/5/2
f 8/12/3 3/11/3 1/10/3 6/9/3
f 7/16/4 8/15/4 6/14/4 5/13/4
f 6/20/5 1/19/5 2/18/5 5/17/5
f 7/24/6 4/23/6 3/22/6 8/21/6
o cylinder
v 0 1.6874999999999996 1.4937499999999997
v 0 1.6875 -0.49375000000000013
v 0.4010864474203369 2.8749999999999996 1.4937500000000001
v 0.4010864474203369 2.875 -0.4937499999999999
v 1.0957885525796633 2.5568103339880413 1.49375
v 1.0957885525796633 2.5568103339880417 -0.49374999999999997
v 1.496875 2.005689666011958 1.49375
v 1.496875 2.0056896660119583 -0.4937500000000001
v 1.496875 1.3693103339880417 1.4937499999999997
v 1.496875 1.3693103339880421 -0.49375000000000024
v 1.0957885525796633 0.8181896660119583 1.4937499999999997
v 1.0957885525796633 0.8181896660119587 -0.49375000000000036
v 0.4010864474203371 0.49999999999999956 1.4937499999999995
v 0.4010864474203371 0.5 -0.4937500000000004
v -0.4010864474203364 0.49999999999999956 1.4937499999999995
v -0.4010864474203364 0.5 -0.4937500000000004
v -1.0957885525796633 0.8181896660119574 1.4937499999999997
v -1.0957885525796633 0.8181896660119579 -0.49375000000000036
v -1.496875 1.3693103339880417 1.4937499999999997
v -1.496875 1.3693103339880421 -0.49375000000000024
v -1.496875 2.0056896660119574 1.49375
v -1.496875 2.005689666011958 -0.4937500000000001
v -1.0957885525796636 2.5568103339880413 1.49375
v -1.0957885525796636 2.5568103339880413 -0.49374999999999997
v -0.4010864474203367 2.8749999999999996 1.4937500000000001
v -0.4010864474203367 2.875 -0.4937499999999999
vt 0.16223671875 0.98011328125
vt 0.11881796875 1
vt 0.09375 0.92578125
vt 0.2906927734375 0.47734374999999996
vt 0.3384494140625 0.47734374999999996
vt 0.3384494140625 0.6015625
vt 0.2906927734375 0.6015625
vt 0.23600546875 0.72265625
vt 0.27942421875 0.74254296875
vt 0.2109375 0.796875
vt 0.1873046875 0.94566796875
vt 0.16223671875 0.98011328125
vt 0.09375 0.92578125
vt 0.046875 0.72265625
vt 0.08984375 0.72265625
vt 0.08984375 0.84765625
vt 0.046875 0.84765625
vt 0.27942421875 0.74254296875
vt 0.3044921875 0.77698828125
vt 0.2109375 0.796875
vt 0.1873046875 0.90589453125
vt 0.1873046875 0.94566796875
vt 0.09375 0.92578125
vt 0.47265625 0.48828125
vt 0.51171875 0.48828125
vt 0.51171875 0.61328125
vt 0.47265625 0.61328125
vt 0.3044921875 0.77698828125
vt 0.3044921875 0.81676171875
vt 0.2109375 0.796875
vt 0.16223671875 0.87144921875
vt 0.1873046875 0.90589453125
vt 0.09375 0.92578125
vt 0.12890625 0.46484375
vt 0.171875 0.46484375
vt 0.171875 0.58984375
vt 0.12890625 0.58984375
vt 0.3044921875 0.81676171875
vt 0.27942421875 0.85120703125
vt 0.2109375 0.796875
vt 0.11881796875 0.8515625
vt 0.16223671875 0.87144921875
vt 0.09375 0.92578125
vt 0.3842068359375 0.87578125
vt 0.4319634765625 0.87578125
vt 0.4319634765625 1
vt 0.3842068359375 1
vt 0.27942421875 0.85120703125
vt 0.23600546875 0.87109375
vt 0.2109375 0.796875
vt 0.06868203125 0.8515625
vt 0.11881796875 0.8515625
vt 0.09375 0.92578125
vt 0.4319634765625 0.87578125
vt 0.4820994140625 0.87578125
vt 0.4820994140625 1
vt 0.4319634765625 1
vt 0.23600546875 0.87109375
vt 0.18586953125 0.87109375
vt 0.2109375 0.796875
vt 0.02526328125 0.87144921875
vt 0.06868203125 0.8515625
vt 0.09375 0.92578125
vt 0.4820994140625 0.87578125
vt 0.5298556640625001 0.87578125
vt 0.5298556640625001 1
vt 0.4820994140625 1
vt 0.18586953125 0.87109375
vt 0.14245078125 0.85120703125
vt 0.2109375 0.796875
vt 0.00019531250000000278 0.90589453125
vt 0.02526328125 0.87144921875
vt 0.09375 0.92578125
vt 0 0.73046875
vt 0.04296875 0.73046875
vt 0.04296875 0.85546875
vt 0 0.85546875
vt 0.14245078125 0.85120703125
vt 0.1173828125 0.81676171875
vt 0.2109375 0.796875
vt 0.00019531250000000278 0.94566796875
vt 0.00019531250000000278 0.90589453125
vt 0.09375 0.92578125
vt 0.5 0.74609375
vt 0.5390625 0.74609375
vt 0.5390625 0.87109375
vt 0.5 0.87109375
vt 0.1173828125 0.81676171875
vt 0.1173828125 0.77698828125
vt 0.2109375 0.796875
vt 0.02526328125 0.98011328125
vt 0.00019531250000000278 0.94566796875
vt 0.09375000000000001 0.92578125
vt 0.45703125 0.6171875
vt 0.5 0.6171875
vt 0.5 0.7421875
vt 0.45703125 0.7421875
vt 0.1173828125 0.77698828125
vt 0.14245078125 0.74254296875
vt 0.2109375 0.796875
vt 0.06868203125 1
vt 0.02526328125 0.98011328125
vt 0.09375 0.92578125
vt 0.1928005859375 0.47734374999999996
vt 0.2405568359375 0.47734374999999996
vt 0.2405568359375 0.6015625
vt 0.1928005859375 0.6015625
vt 0.14245078125 0.74254296875
vt 0.18586953125 0.72265625
vt 0.2109375 0.796875
vt 0.11881796875 1
vt 0.06868203125 1
vt 0.09375 0.92578125
vt 0.2405568359375 0.47734374999999996
vt 0.2906927734375 0.47734374999999996
vt 0.2906927734375 0.6015625
vt 0.2405568359375 0.6015625
vt 0.18586953125 0.72265625
vt 0.23600546875 0.72265625
vt 0.2109375 0.796875
vn 0 -2.220446049250313e-16 1
vn 0.4164216652495511 0.9091715991554019 2.0187664854352015e-16
vn 0 2.220446049250313e-16 -1
vn 0 -2.220446049250313e-16 1
vn 0.8085466314418867 0.5884321072001238 1.3065817476845517e-16
vn 0 2.220446049250313e-16 -1
vn 0 -2.220446049250313e-16 1
vn 1 0 0
vn 0 2.220446049250313e-16 -1
vn 0 -2.220446049250313e-16 1
vn 0.8085466314418865 -0.588432107200124 -1.306581747684552e-16
vn 0 2.220446049250313e-16 -1
vn 0 -2.220446049250313e-16 1
vn 0.4164216652495515 -0.9091715991554017 -2.018766485435201e-16
vn 0 2.220446049250313e-16 -1
vn 0 -2.220446049250313e-16 1
vn 0 -1 -2.220446049250313e-16
vn 0 2.220446049250313e-16 -1
vn 0 -2.220446049250313e-16 1
vn -0.4164216652495503 -0.9091715991554024 -2.0187664854352024e-16
vn 0 2.220446049250313e-16 -1
vn 0 -2.220446049250313e-16 1
vn -0.8085466314418871 -0.5884321072001232 -1.3065817476845502e-16
vn 0 2.220446049250313e-16 -1
vn 0 -2.220446049250313e-16 1
vn -1 0 0
vn 0 2.220446049250313e-16 -1
vn 0 -2.220446049250313e-16 1
vn -0.808546631441887 0.5884321072001235 1.306581747684551e-16
vn 0 2.220446049250313e-16 -1
vn 0 -2.220446049250313e-16 1
vn -0.4164216652495513 0.909171599155402 2.0187664854352017e-16
vn 0 2.220446049250313e-16 -1
vn 0 -2.220446049250313e-16 1
vn 0 1 2.220446049250313e-16
vn 0 2.220446049250313e-16 -1
usemtl m_3f3e1241-e8e0-e9ba-d126-0dffbea659b6
f 13/25/7 11/26/7 9/27/7
f 11/28/8 13/29/8 14/30/8 12/31/8
f 12/32/9 14/33/9 10/34/9
f 15/35/10 13/36/10 9/37/10
f 13/38/11 15/39/11 16/40/11 14/41/11
f 14/42/12 16/43/12 10/44/12
f 17/45/13 15/46/13 9/47/13
f 15/48/14 17/49/14 18/50/14 16/51/14
f 16/52/15 18/53/15 10/54/15
f 19/55/16 17/56/16 9/57/16
f 17/58/17 19/59/17 20/60/17 18/61/17
f 18/62/18 20/63/18 10/64/18
f 21/65/19 19/66/19 9/67/19
f 19/68/20 21/69/20 22/70/20 20/71/20
f 20/72/21 22/73/21 10/74/21
f 23/75/22 21/76/22 9/77/22
f 21/78/23 23/79/23 24/80/23 22/81/23
f 22/82/24 24/83/24 10/84/24
f 25/85/25 23/86/25 9/87/25
f 23/88/26 25/89/26 26/90/26 24/91/26
f 24/92/27 26/93/27 10/94/27
f 27/95/28 25/96/28 9/97/28
f 25/98/29 27/99/29 28/100/29 26/101/29
f 26/102/30 28/103/30 10/104/30
f 29/105/31 27/106/31 9/107/31
f 27/108/32 29/109/32 30/110/32 28/111/32
f 28/112/33 30/113/33 10/114/33
f 31/115/34 29/116/34 9/117/34
f 29/118/35 31/119/35 32/120/35 30/121/35
f 30/122/36 32/123/36 10/124/36
f 33/125/37 31/126/37 9/127/37
f 31/128/38 33/129/38 34/130/38 32/131/38
f 32/132/39 34/133/39 10/134/39
f 11/135/40 33/136/40 9/137/40
f 33/138/41 11/139/41 12/140/41 34/141/41
f 34/142/42 12/143/42 10/144/42