# Made in Blockbench 4.8.3
mtllib turbine_shaft.mtl

o 4
v 0.375 1.9375 7.5
v 0.375 1.9375 6.5
v 0.375 1.0625 7.5
v 0.375 1.0625 6.5
v -0.5 1.9375 6.5
v -0.5 1.9375 7.5
v -0.5 1.0625 6.5
v -0.5 1.0625 7.5
vt 0 1
vt 1 1
vt 1 0
vt 0 0
vt 0 1
vt 1 1
vt 1 0
vt 0 0
vt 0 1
vt 1 1
vt 1 0
vt 0 0
vt 0 1
vt 1 1
vt 1 0
vt 0 0
vt 0 1
vt 1 1
vt 1 0
vt 0 0
vt 0 1
vt 1 1
vt 1 0
vt 0 0
vn 0 0 -1
vn 1 0 0
vn 0 0 1
vn -1 0 0
vn 0 1 0
vn 0 -1 0
usemtl m_a3e82c05-9876-9ef3-4e4e-d1339eb71385
f 4/4/1 7/3/1 5/2/1 2/1/1
f 3/8/2 4/7/2 2/6/2 1/5/2
f 8/12/3 3/11/3 1/10/3 6/9/3
f 7/16/4 8/15/4 6/14/4 5/13/4
f 6/20/5 1/19/5 2/18/5 5/17/5
f 7/24/6 4/23/6 3/22/6 8/21/6